<svg id="OBJECTS" xmlns="http://www.w3.org/2000/svg" xmlns:xlink="http://www.w3.org/1999/xlink" viewBox="0 0 750 500"><defs><style>.cls-1{fill:none;}.cls-2{clip-path:url(#clip-path);}.cls-3{fill:#e9a200;}</style><clipPath id="clip-path"><rect class="cls-1" width="750" height="500"/></clipPath></defs><title>5570862</title><g class="cls-2"><path class="cls-3" d="M327.63,557.19V528.65l-26.92-15.54v30.55l-25.07,14.47v-30l-26.45,15.27-25.53-14.74v-28a1.8,1.8,0,0,0,1.35-1.74,1.85,1.85,0,0,0-.07-.48l24.48-14.13.23-.13V453.09L223.2,468.36l-26-15-26,15-25.53-14.74V424.14l26.46-15.27L145.68,393.6V363.05L119,378.46l-.24.13v29.48L95,394.34a1.92,1.92,0,0,0,.07-.48,1.8,1.8,0,0,0-1.35-1.74v-58l25.76-14.87.23-.13V288L93,303.42l-.23.14v30L67.24,348.31,42.17,333.84l25.3-14.61.23-.13V288L41,303.42l-.23.14v59.49L17,349.32a1.84,1.84,0,0,0,.07-.47,1.8,1.8,0,0,0-1.35-1.75V318.57L-9.81,303.83l25.07-14.48.46.27v-.53l.46-.27-.46-.27v-30L-9,244.27a1.84,1.84,0,0,0,.07-.47A1.81,1.81,0,0,0-10.73,242a1.81,1.81,0,0,0-1.82,1.81,1.82,1.82,0,0,0,1.35,1.75v28l-26.45,15.27,26,15L-37,318.43l-.23.14v30l-.46.27.46.26v30l25.52,14.73L-37,408.47l-.23.13v31.08l26.69-15.4.23-.14V394.65l0,0V364.12l24.24-14a1.72,1.72,0,0,0,.83.47v28.53l25.53,14.74L15,408.47l-.23.13v30l-24.23,14a1.78,1.78,0,0,0-1.28-.53,1.81,1.81,0,0,0-1.82,1.81,1.82,1.82,0,0,0,1.35,1.75v58L-37,528.51l-.23.13v31.08l0,0v29.5l26,15v.53l.47-.26.46.26v-.53l25.76-14.87.23-.14V558.12L-9.43,572.65a1.8,1.8,0,0,0-1.28-.53,1.8,1.8,0,0,0-1.29.53l-23.8-13.74,24.62-14.22v0l26.46-15.27,26.45,15.27V514.17l25.74-14.86.23-.14V470.64a1.81,1.81,0,1,0-2.27-1.75,1.85,1.85,0,0,0,.07.48L41,483.5l-.23.13V513.1l-25-14.46V439.13l25.51-14.72L67.7,439.68V409.14l24.25-14a1.74,1.74,0,0,0,.82.47v28.53l24.71,14.27a1.84,1.84,0,0,0-.07.47,1.92,1.92,0,0,0,.07.48L93,453.49l-.23.13v60L68.68,527.53a1.81,1.81,0,0,0-3.29,1.05,1.79,1.79,0,0,0,1.35,1.74v29.4l26-15V574.2l26.92,15.54V558.66L94.14,543.93l25.09-14.48,24.25,14a1.84,1.84,0,0,0-.07.47,1.81,1.81,0,1,0,3.62,0,1.79,1.79,0,0,0-1.35-1.74v-58l25.53-14.74,25.07,14.47L171,498.51l-.23.13v30l-.46.27.46.27v29.48L145,573.54l-.23.13v31.08l26.68-15.41.23-.13V559.73l25.07,14.48v.53l.46-.27,26.46,15.28V560.68a1.69,1.69,0,0,0,.82-.47l24.25,14v30.54l26-15h0l26.68-15.4.24-.14V544.73l23.78,13.73a1.84,1.84,0,0,0-.07.47,1.82,1.82,0,1,0,2.28-1.74ZM41.71,304.09l25.07-14.47v28.94L41.71,333ZM-11.22,423.61l-25.07,14.47V409.14l25.07-14.47Zm26,136.11v28.95l-25.07,14.47V575.68a1.82,1.82,0,0,0,1.35-1.75,1.84,1.84,0,0,0-.07-.47Zm-26,16v27.46l-25.06-14.47V559.73l23.78,13.73a1.84,1.84,0,0,0-.07.47A1.82,1.82,0,0,0-11.18,575.68Zm285.9-17-25.07,14.47V544.19l25.07-14.47Zm-52-1.47a1.74,1.74,0,0,0-.82.47l-23.78-13.73,24.6-14.21Zm-25.06-43.54V484.7l23.78,13.73a1.92,1.92,0,0,0-.07.48,1.8,1.8,0,0,0,1.35,1.74v27.47Zm25.06-16.49a1.74,1.74,0,0,0-.82.47L198.13,483.9l24.6-14.21ZM197.2,514.45l25.07,14.47-11.39,6.57-13.68,7.9-25.06-14.47,11.38-6.57Zm.47,30.28,23.78,13.73a1.84,1.84,0,0,0-.07.47,1.92,1.92,0,0,0,.07.48l-23.78,13.73Zm51.06-61.1-24.25,14a1.74,1.74,0,0,0-.82-.47v-28l25.07-14.47Zm-129-46.49V409.67l25.07,14.47v28.95L121,439.36a1.92,1.92,0,0,0,.07-.48A1.79,1.79,0,0,0,119.69,437.14Zm0,3.49a1.77,1.77,0,0,0,.82-.47l23.78,13.73-24.6,14.2Zm25.53-17.29-25.07-14.47,12.3-7.1,12.77-7.37,25.07,14.47Zm-25.53-44.22,25.07-14.47v29l-25.07,14.47Zm-26-75,25.06-14.47v28.94L93.7,333Zm-.93,59.5-8.2,4.73L67.7,378.06V349.11l25.07-14.47Zm-26,44.48-12.53-7.24L41.71,393.6v-29l12.54,7.24,12.53,7.23ZM41.71,334.64l25.07,14.47v28.95l-12.53-7.24-12.54-7.23ZM14.8,347.1a1.72,1.72,0,0,0-.83.47l-24.24-14V304.63L14.8,319.1Zm0-88V288l-25.07-14.47v-28a1.92,1.92,0,0,0,.82-.47Zm-25.53,15.28,25.06,14.47L-10.27,303h0l-.46.26-.47-.26h0l-24.6-14.21ZM-36.26,319.1l25.06-14.47v28.94l-25.06,14.48Zm0,30.55,25.06,14.47v28.95l-25.06-14.48Zm25.53,13.67L-35.8,348.85l11.39-6.58,13.68-7.9,24.24,14a1.65,1.65,0,0,0,0,.95Zm26.45-12.73a1.77,1.77,0,0,0,.83-.47l24.24,14v28.94L15.72,378.59Zm0,58.55,25.07-14.48v28.95L15.72,438.08Zm-26,46.5a1.82,1.82,0,0,0,1.35-1.75,1.78,1.78,0,0,0-.07-.47l23.79-13.74v28.95L-10.25,483.1Zm25.07,43-25.07,14.47V484.17L14.82,469.7Zm-26,45-25.07,14.47V529.18l25.07-14.48Zm1-29.47,25.07-14.47v28.94l-25.07,14.47Zm52-30,24.25-14a1.69,1.69,0,0,0,.82.47v28L41.71,513.11Zm-.9,30.53v28.42L15.74,528.65V499.71l25,14.46v.54Zm26-76.62L41.71,423.61V394.66l12.54,7.24,12.53,7.24Zm.92-30V379.13L82,370.85l10.74-6.2v27.47a1.8,1.8,0,0,0-1.35,1.74,1.92,1.92,0,0,0,.07.48Zm26,15.54v-28a1.74,1.74,0,0,0,.82-.47l24.24,14v28a1.74,1.74,0,0,0-.82.47Zm0,30.55,24.24-14a1.82,1.82,0,0,0,.82.47v28l-.46.26h0L93.7,483.1Zm0,60,25.06-14.47v28.94L93.7,543.12Zm25.06-15.54L93.7,513.11V484.17l25.06-14.47Zm-51.1,59.48v-27.8A1.8,1.8,0,0,0,69,528.58c0-.06,0-.12,0-.17L92.73,514.7v28.95Zm51.06,30L93.66,573.66V544.72l25.06,14.47Zm26-46a1.77,1.77,0,0,0-.83.47l-24.24-14V499.71l25.07,14.47Zm-25.07-43.54V469.69l25.07,14.48v28.94Zm25.53-15.27-25.07-14.48,25.07-14.47.46.27h0l24.61,14.2Zm52-28.95,25.07,14.47-24.6,14.21h0l-.47.27-.46-.27h0l-24.6-14.21Zm-25.53,44.75,25.07-14.47v28.95l-25.07,14.47Zm-.92,89.51-25.07,14.47V574.21l25.07-14.48Zm.92-30V529.72l25.07,14.47v28.95Zm26.46,15.27,23.78-13.73a1.74,1.74,0,0,0,.82.47v27.47Zm25.53-16.75V529.72l25.07,14.47v28.95L224.94,559.4a1.78,1.78,0,0,0,.07-.47A1.8,1.8,0,0,0,223.66,557.19Zm26,45.95V574.2l25.07-14.47v28.94Zm51.06-29.47-25.07,14.47V559.2l25.07-14.47Zm.93-30V514.71l25.06,14.48v28a1.74,1.74,0,0,0-.82.47ZM764.42,380.12l-26-15,25.29-14.61.24-.13v-30l.46-.27-.46-.27v-30l-25.52-14.73,25.31-14.62.23-.13V229.25l-26.69,15.41-.23.13v29.49h0v30.55l-24.24,14a2,2,0,0,0-.83-.47V259.8l-26-15v-30l-24.71-14.27a1.65,1.65,0,0,0,0-1l24.48-14.13.23-.14V155.84l25,14.46v60.55l25.16-14.53a1.79,1.79,0,0,0,1.29.54,1.81,1.81,0,0,0,.46-3.56v-58l25.81-14.89.23-.14V109.21l-26,15v0l-26.45,15.28L685,124.21v30.56l-25.74,14.86-.23.13V198.3a1.8,1.8,0,0,0-1.35,1.74,1.82,1.82,0,0,0,1.35,1.75v28.54l26,15v29.48L660,289.28V259.8l-26-15v-.53l-.46.27-.46-.27v.53l-25.76,14.88-.23.13v31.08l25.16-14.53a1.81,1.81,0,0,0,2.58,0l24.24,14v60.57l26.46-15.28,25.53,14.74h0l25.53,14.74-25.07,14.47-.46-.26v.53l-.46.27.46.26v30l26,15v28a1.81,1.81,0,1,0,2.28,1.75,1.5,1.5,0,0,0-.08-.47l24.48-14.14.24-.13V409.33l-26,15V395.39ZM738,245.33l25.07-14.48v29L738,274.27Zm25,104.51L738,364.31V335.36L763,320.89Zm0-30.55L738,304.82V275.87L763,290.35ZM737.5,305.62l25.07,14.47-11.39,6.58-13.68,7.89-24.25-14a1.78,1.78,0,0,0,.07-.47,1.84,1.84,0,0,0-.07-.47Zm-26.45-15.27v28a1.87,1.87,0,0,0-.83.48l-11.71-6.76L686,304.82V275.88l12.53,7.23Zm.9-120L737,155.83v28.94L712,199.24Zm0,58.95V200.31L737,185.84V213.3a1.81,1.81,0,0,0-1.35,1.75,1.84,1.84,0,0,0,.07.47Zm26-104,25.07-14.48v28.95L738,154.23Zm-1,29.47L712,169.23V140.29L737,125.81ZM686,125.81,711,140.29v28.94l-25-14.46v-.54h0Zm-.91,30v28.94l-24.24,14a1.74,1.74,0,0,0-.82-.47v-28Zm-25.06,74v-28a1.74,1.74,0,0,0,.82-.47l24.24,14v28.94Zm51.06,30.55v28.94l-12.54-7.23L686,274.81V245.86ZM608,289.28V260.33l25.07-14.47v27.47a1.77,1.77,0,0,0-1.28,2.21Zm26-15.95V245.86l25.07,14.47v28.95l-23.78-13.74a1.78,1.78,0,0,0,.07-.47A1.8,1.8,0,0,0,634,273.33Zm26,17,25.06-14.47v28.94L660,319.29Zm0,30,25.06-14.47v28.94L660,349.31Zm26,14.47V305.89l12.53,7.23,11.26,6.5a1.49,1.49,0,0,0-.07.47,1.81,1.81,0,0,0,1.35,1.75V349.3Zm26-13a2,2,0,0,0,.83-.47l24.24,14v28.95L712,349.84ZM737,365.91h0l.46-.27.46.27h0l24.61,14.21L737.5,394.59l-25.07-14.47Zm-25.07,15L737,395.39v28.95L712,409.86Zm51.06,30v28.95l-24.24,14a2,2,0,0,0-.83-.47v-28Z"/></g></svg>
