<svg xmlns="http://www.w3.org/2000/svg" viewBox="0 0 137.21 291.32"><defs><style>.cls-1{fill:#ff000e;}.cls-1,.cls-2,.cls-3{opacity:0.7;}.cls-2,.cls-5{fill:#009fe3;}.cls-3,.cls-6{fill:#662483;}.cls-4{fill:#1d1d1b;}.cls-5,.cls-6{opacity:0.2;}</style></defs><title>Asset 1</title><g id="Layer_2" data-name="Layer 2"><g id="OBJECTS"><path class="cls-1" d="M101.58,270.47a38.16,38.16,0,0,1,4.08-.07h11.08v-6.93h14.59V29.15H116.76V32H104a21.85,21.85,0,0,0-4.69.44V29.6c-1.84.38-3.58.89-5.25,1.16a15.07,15.07,0,0,1-4.83,0c-1.56-.24-3.07-.65-4.53-1a22.07,22.07,0,0,0-4.3-.65c-1.4,0-2.79,0-4.17,0H72c-1.4,0-2.82.07-4.28,0a30.67,30.67,0,0,1-4.53-.77,37.77,37.77,0,0,0-4.87-.9,17.74,17.74,0,0,0-5.26.45v2.84c-1.44.3-2.52.58-3.6.8a18,18,0,0,1-3.6.45V29.15c-1.84,0-3.58,0-5.25,0H35.82a29.68,29.68,0,0,0-4.47.26c-1.45.23-2.86.55-4.25.81A23.47,23.47,0,0,1,23,30.7a22.8,22.8,0,0,1-4.15-.45c-1.4-.26-2.82-.59-4.27-.82a28.68,28.68,0,0,0-4.48-.28H0V263.47H8.15c1.3,0,2.69-.08,4.36,0v2.84a36.61,36.61,0,0,1,4.72.74,40.46,40.46,0,0,0,4.06.68,17.3,17.3,0,0,0,4.05-.1c1.42-.19,2.94-.54,4.69-.87V264a29.41,29.41,0,0,1,5.55-.48h9.75a21.4,21.4,0,0,0,4.46-.51c1.46-.31,2.9-.69,4.37-.95a15.81,15.81,0,0,1,4.46-.21,41.3,41.3,0,0,1,4.73.91,25.5,25.5,0,0,0,5.09.76c1.76,0,3.61,0,5.56,0v2.84h3.63a35.09,35.09,0,0,1,3.62.06v-2.85a30.76,30.76,0,0,1,4.48.85c1.37.33,2.65.63,3.89.8a14.17,14.17,0,0,0,3.68,0,36.52,36.52,0,0,0,3.85-.78,31.32,31.32,0,0,1,4.43-.87v6.94ZM74,260.31v-2.84c-2,0-3.8,0-5.56,0a25.5,25.5,0,0,1-5.09-.76,41.3,41.3,0,0,0-4.73-.91,15.81,15.81,0,0,0-4.46.21c-1.47.26-2.91.64-4.37.95a21.4,21.4,0,0,1-4.46.51H35.58A29.41,29.41,0,0,0,30,258v2.85c-1.75.33-3.27.68-4.69.87a17.3,17.3,0,0,1-4.05.1,40.46,40.46,0,0,1-4.06-.68,36.61,36.61,0,0,0-4.72-.74v-2.84c-1.3-.09-2.28,0-3.26,0H6V35.15h4.71a24.45,24.45,0,0,1,4.71.44V48.05c1.57.29,2.75.56,3.92.76a18.79,18.79,0,0,0,3.91.35V36.69a27.09,27.09,0,0,0,5-.69c1.51-.3,2.92-.6,4.3-.74a37.18,37.18,0,0,1,4.09-.11h4.31c1.52,0,3.15,0,5,0V38a18,18,0,0,0,3.6-.45c1.08-.22,2.16-.5,3.6-.8V33.91a17.83,17.83,0,0,1,4.54-.5,26.23,26.23,0,0,1,4.59.72v7.09a46.24,46.24,0,0,0,4.79.92,34.37,34.37,0,0,0,4.14.1H79.2a22.06,22.06,0,0,1,4.77.5V35.65c1.54.33,2.89.7,4.14,1a17.19,17.19,0,0,0,3.54.39,18.65,18.65,0,0,0,3.53-.45c1.24-.26,2.56-.62,4.09-.94v2.84A21.85,21.85,0,0,1,104,38h12.8V35.15h8.57V257.47H105.5a34.14,34.14,0,0,0-4.41.12,42,42,0,0,0-4.47.94,23.21,23.21,0,0,1-4.68.76,19.62,19.62,0,0,1-5.08-.65,41.55,41.55,0,0,0-5.61-1.12v2.85a35.09,35.09,0,0,0-3.62-.06Z"/><path class="cls-2" d="M107.46,267.15h15.15v-6.93h14.6V25.9H122.64v2.85H105.13V25.9a28.16,28.16,0,0,0-5.27.33c-1.67.31-3.26.77-4.81,1.09a16.12,16.12,0,0,1-4.49.38,28.25,28.25,0,0,1-4.3-.76c-1.41-.34-2.8-.69-4.19-.88a29.11,29.11,0,0,0-4.18-.16H69.11a23.31,23.31,0,0,1-4.85-.56c-1.7-.36-3.47-.84-5.32-1.07v2.85a14.19,14.19,0,0,0-3.63,0,34.93,34.93,0,0,0-3.6.7V25a31.25,31.25,0,0,1-5.21.92c-1.67.1-3.26,0-4.81,0H37.22c-1.45,0-2.87,0-4.26.06a36.78,36.78,0,0,0-4.14.67c-1.37.28-2.74.56-4.13.71a17.41,17.41,0,0,1-4.26-.08c-1.45-.2-2.94-.53-4.49-.83a25.23,25.23,0,0,0-4.82-.53H5.88V260.22h4.35a25.47,25.47,0,0,1,3.8.2c1.3.18,2.7.49,4.37.81v2.85a24.09,24.09,0,0,0,4.72.52,22.9,22.9,0,0,0,4-.48c1.31-.25,2.61-.55,4-.78a29.62,29.62,0,0,1,4.7-.28v-2.84h5.57c1.76,0,3.44.07,5,0a27.15,27.15,0,0,0,4.66-.79,36.24,36.24,0,0,1,4.45-.85,16,16,0,0,1,4.41.2c1.48.26,3,.65,4.51,1a23.77,23.77,0,0,0,4.72.5H79.88v2.84a17.19,17.19,0,0,1,3.63.4c1.09.22,2.19.51,3.65.84v-2.84a19.79,19.79,0,0,0,4.47.59,18.35,18.35,0,0,0,3.86-.51c1.23-.27,2.42-.59,3.65-.86a18.38,18.38,0,0,1,3.86-.46h4.46v6.93ZM79.88,257.06v-2.84H69.26a23.77,23.77,0,0,1-4.72-.5c-1.53-.32-3-.71-4.51-1a16,16,0,0,0-4.41-.2,36.24,36.24,0,0,0-4.45.85,27.15,27.15,0,0,1-4.66.79c-1.61.1-3.29,0-5,0H35.89v2.84a29.62,29.62,0,0,0-4.7.28c-1.42.23-2.72.53-4,.78a22.9,22.9,0,0,1-4,.48,24.09,24.09,0,0,1-4.72-.52v-2.85c-1.3-.25-2.28-.46-3.26-.63a20.33,20.33,0,0,0-3.26-.38V31.91a26.63,26.63,0,0,1,4.71.65,43,43,0,0,0,4.73.81V45.83a15.93,15.93,0,0,0,3.9-.08c1.17-.15,2.34-.4,3.9-.71V32.57a27.7,27.7,0,0,1,4.95-.66c1.52,0,2.93,0,4.31,0h4.09c1.38,0,2.8.08,4.31,0a32.61,32.61,0,0,0,4.93-.9v2.85a34.93,34.93,0,0,1,3.6-.7,14.19,14.19,0,0,1,3.63,0V30.27a43.8,43.8,0,0,1,4.59.91,23.65,23.65,0,0,0,4.59.72V39c1.74.06,3.3,0,4.76,0H77c1.32,0,2.6-.06,3.92,0a26.61,26.61,0,0,1,4.15.72,41.64,41.64,0,0,0,4.79,1V33.64A14.55,14.55,0,0,0,94,33.52c1.23-.2,2.37-.49,3.51-.77A33.7,33.7,0,0,1,101,32a31.31,31.31,0,0,1,4.11-.14v2.85h17.51V31.9h8.57V254.22H107c-1.48,0-3-.05-4.49,0a24.94,24.94,0,0,0-4.68.77,34.58,34.58,0,0,1-5,1,18.26,18.26,0,0,1-5.59-.53v2.84c-1.46-.33-2.56-.62-3.65-.84A17.19,17.19,0,0,0,79.88,257.06Z"/><path class="cls-3" d="M104.94,262.78H120.1v-6.94h14.59V21.53H120.12v2.84h-12.8c-1.43,0-3,0-4.71,0V21.53a25.26,25.26,0,0,0-5.25.88,31.85,31.85,0,0,1-4.81.91A16.59,16.59,0,0,1,88,23c-1.46-.3-2.89-.69-4.3-1a20,20,0,0,0-4.18-.45H71.09a34.41,34.41,0,0,1-4.5-.14c-1.56-.21-3.18-.62-4.88-1a19.64,19.64,0,0,0-5.3-.6v2.84a21.83,21.83,0,0,0-3.6.54c-1.08.24-2.16.52-3.59.8V21.14a26.56,26.56,0,0,1-5.24.39H34.7a23.91,23.91,0,0,0-4.25.41c-1.39.25-2.76.57-4.14.8a19.12,19.12,0,0,1-4.14.31,28.46,28.46,0,0,1-4.27-.6c-1.45-.29-2.94-.62-4.49-.8a42.14,42.14,0,0,0-4.81-.12H3.36V255.84h8.15a24.28,24.28,0,0,1,4.36.52v2.84c1.76.34,3.3.68,4.72.87a17.24,17.24,0,0,0,4.05.06c1.32-.14,2.62-.4,4-.69a33,33,0,0,1,4.7-.73v-2.84c1.95-.12,3.8,0,5.56,0H44a26.69,26.69,0,0,0,4.69-.29c1.51-.26,3-.66,4.43-1a18.25,18.25,0,0,1,4.39-.49,24,24,0,0,1,4.5.67c1.54.35,3.11.74,4.73.95a42.08,42.08,0,0,0,5.06.12h5.57v2.85c1.45,0,2.53-.05,3.62,0a24.36,24.36,0,0,1,3.64.61v-2.84c1.64.37,3.11.76,4.48,1a14.6,14.6,0,0,0,3.88.12,29.44,29.44,0,0,0,3.66-.69c1.23-.3,2.49-.63,3.85-.85a28.45,28.45,0,0,1,4.45-.21v6.94ZM77.36,252.69v-2.85H71.79a42.08,42.08,0,0,1-5.06-.12c-1.62-.21-3.19-.6-4.73-.95a24,24,0,0,0-4.5-.67,18.25,18.25,0,0,0-4.39.49c-1.46.3-2.92.7-4.43,1a26.69,26.69,0,0,1-4.69.29H38.94c-1.76,0-3.61-.09-5.56,0v2.84a33,33,0,0,0-4.7.73c-1.42.29-2.72.55-4,.69a17.24,17.24,0,0,1-4.05-.06c-1.42-.19-3-.53-4.72-.87v-2.84a27.15,27.15,0,0,0-3.26-.47c-1-.08-1.95,0-3.25,0V27.53a32.05,32.05,0,0,1,4.71.21c1.41.2,2.83.53,4.72.88V41.09a23.1,23.1,0,0,0,3.91.45,21,21,0,0,0,3.9-.38V28.69c1.81-.32,3.43-.71,4.95-.94a29.22,29.22,0,0,1,4.31-.22h8.41a25.15,25.15,0,0,0,4.95-.39V30c1.43-.28,2.51-.56,3.59-.8a21.83,21.83,0,0,1,3.6-.54V25.8a16.35,16.35,0,0,1,4.58.45c1.38.28,2.77.66,4.6,1v7.08a26.19,26.19,0,0,0,4.77.3h8.06a24.74,24.74,0,0,1,4.14.23c1.47.24,3,.67,4.79,1.06V28.81a19.35,19.35,0,0,0,4.12.55A16.17,16.17,0,0,0,95,29c1.14-.23,2.28-.53,3.52-.81a19.56,19.56,0,0,1,4.09-.61v2.85c1.75-.05,3.28,0,4.71,0h12.8V27.53h8.57V249.84H104.44a23.51,23.51,0,0,0-4.48.31c-1.52.28-3.06.71-4.68,1.06a16.51,16.51,0,0,1-5,.4,46.33,46.33,0,0,1-5.61-1.12v2.84a24.36,24.36,0,0,0-3.64-.61C79.89,252.64,78.81,252.69,77.36,252.69Z"/><path class="cls-4" d="M76.52,262.48h3.62a17.78,17.78,0,0,1,3.64.46v-2.85c1.83.39,3.58.88,5.26,1.16a15.35,15.35,0,0,0,4.83,0c1.54-.25,3-.65,4.48-1a20.73,20.73,0,0,1,4.26-.64c1.4,0,2.78,0,4.15,0h27.09V25.32H119.28v2.84h-12.8c-1.42,0-3-.1-4.7.06V25.37a36.82,36.82,0,0,0-5.26,1,22.09,22.09,0,0,1-4.81.75,18.92,18.92,0,0,1-4.52-.58c-1.46-.33-2.89-.71-4.3-1a23.69,23.69,0,0,0-4.18-.28H70.26a25.86,25.86,0,0,1-4.51-.27c-1.57-.27-3.19-.7-4.88-1a17.17,17.17,0,0,0-5.29-.35V26.5a27.25,27.25,0,0,0-3.6.66c-1.08.25-2.15.53-3.6.77V25.08a31.24,31.24,0,0,1-5.23.24H38.34c-1.54,0-3,0-4.48,0a25,25,0,0,0-4.25.56c-1.39.27-2.76.58-4.13.77a16.93,16.93,0,0,1-4.15.12,40,40,0,0,1-4.27-.71,37.71,37.71,0,0,0-4.48-.71c-1.55-.11-3.14,0-4.81,0H2.52V259.63h8.15A24.61,24.61,0,0,1,15,260v2.85c1.76.3,3.3.67,4.73.9a18.8,18.8,0,0,0,4,.25,30.54,30.54,0,0,0,4-.59c1.42-.28,2.94-.64,4.69-.82v-2.85a52.44,52.44,0,0,1,5.56-.1h5.06a34.33,34.33,0,0,0,4.68-.15c1.52-.21,3-.59,4.44-.92a23.57,23.57,0,0,1,4.38-.67,19.5,19.5,0,0,1,4.5.49c1.53.32,3.1.74,4.73,1a32.28,32.28,0,0,0,5.07.24h5.56Zm-44-5.9c-1.75.18-3.27.54-4.69.82a30.54,30.54,0,0,1-4,.59,18.8,18.8,0,0,1-4-.25c-1.43-.23-3-.6-4.73-.9V254a21.66,21.66,0,0,0-3.26-.35c-1,0-1.95,0-3.25,0V31.32a39.65,39.65,0,0,1,5.64.22c1.78.26,3.47.67,5.1,1a18.94,18.94,0,0,0,4.7.33,34.11,34.11,0,0,0,4.51-.7,40.19,40.19,0,0,1,4.5-.74c1.53-.13,3.09-.06,4.71-.06h5.08a32.92,32.92,0,0,0,5.62-.24v2.85c1.45-.24,2.52-.52,3.6-.77a27.25,27.25,0,0,1,3.6-.66V29.66a17.17,17.17,0,0,1,5.29.35c1.69.34,3.31.77,4.88,1a25.86,25.86,0,0,0,4.51.27h8.45a23.69,23.69,0,0,1,4.18.28c1.41.26,2.84.64,4.3,1a18.92,18.92,0,0,0,4.52.58,22.09,22.09,0,0,0,4.81-.75,36.82,36.82,0,0,1,5.26-1v2.85c1.74-.16,3.28-.06,4.7-.06h12.8V31.32h8.57V253.63H103.6a21.5,21.5,0,0,0-4.47.47c-1.52.33-3.07.77-4.68,1.07a15.51,15.51,0,0,1-5.06.13c-1.78-.26-3.64-.79-5.61-1.21v2.85a17.78,17.78,0,0,0-3.64-.46H76.52v-2.85H71a32.28,32.28,0,0,1-5.07-.24c-1.63-.27-3.2-.69-4.73-1a19.5,19.5,0,0,0-4.5-.49,23.57,23.57,0,0,0-4.38.67c-1.45.33-2.92.71-4.44.92a34.33,34.33,0,0,1-4.68.15H38.1a52.44,52.44,0,0,0-5.56.1Z"/><rect class="cls-5" x="-28.32" y="52.29" width="108.79" height="4.21" transform="translate(80.48 28.32) rotate(90)"/><rect class="cls-5" x="80.94" y="260.63" width="57.17" height="4.21" transform="translate(372.26 153.22) rotate(90)"/><rect class="cls-6" x="66.35" y="214.69" width="108.79" height="4.21" transform="translate(337.55 96.06) rotate(90)"/><rect class="cls-6" x="-36.77" y="228.31" width="108.79" height="4.21" transform="translate(248.04 212.79) rotate(90)"/><rect class="cls-6" x="59.34" y="61.13" width="108.79" height="4.21" transform="translate(176.97 -50.49) rotate(90)"/><rect class="cls-6" x="-8.07" y="31.85" width="51.39" height="4.21" transform="translate(51.58 16.33) rotate(90)"/></g></g></svg>