<svg id="Background" xmlns="http://www.w3.org/2000/svg" xmlns:xlink="http://www.w3.org/1999/xlink" viewBox="0 0 750 500"><defs><style>.cls-1,.cls-5{fill:none;}.cls-2{clip-path:url(#clip-path);}.cls-3{fill:#eb117c;}.cls-4{fill:url(#Degradado_sin_nombre_2);}.cls-5{stroke:#fefefe;stroke-miterlimit:10;}.cls-6{fill:url(#Degradado_sin_nombre_112);}.cls-7{fill:#fefefe;}.cls-8{fill:#951fd7;}.cls-9{fill:#01a9ee;}.cls-10{fill:url(#Degradado_sin_nombre_73);}.cls-11{fill:#fcc204;}.cls-12{fill:url(#Degradado_sin_nombre_4);}.cls-13{fill:url(#Degradado_sin_nombre_5);}.cls-14{fill:url(#Degradado_sin_nombre_82);}.cls-15{fill:url(#Degradado_sin_nombre_5-2);}</style><clipPath id="clip-path"><rect class="cls-1" width="750" height="500"/></clipPath><linearGradient id="Degradado_sin_nombre_2" x1="244.12" y1="24.61" x2="388.07" y2="24.61" gradientUnits="userSpaceOnUse"><stop offset="0" stop-color="#7f0fff"/><stop offset="1" stop-color="#ff4ae9"/></linearGradient><linearGradient id="Degradado_sin_nombre_112" x1="309.84" y1="429.1" x2="352.6" y2="471.85" gradientTransform="translate(201.35 -93.37) rotate(22.89)" gradientUnits="userSpaceOnUse"><stop offset="0" stop-color="#ffbf00"/><stop offset="1" stop-color="#ff3b3b"/></linearGradient><linearGradient id="Degradado_sin_nombre_73" x1="-138.16" y1="436.79" x2="98.69" y2="436.79" gradientUnits="userSpaceOnUse"><stop offset="0" stop-color="#ff4ae9"/><stop offset="1" stop-color="#7f0fff"/></linearGradient><linearGradient id="Degradado_sin_nombre_4" x1="-11.61" y1="-20.6" x2="102.46" y2="93.47" gradientUnits="userSpaceOnUse"><stop offset="0" stop-color="#5a00ff"/><stop offset="1" stop-color="#23ff75"/></linearGradient><linearGradient id="Degradado_sin_nombre_5" x1="684.96" y1="501.58" x2="907.87" y2="501.58" gradientUnits="userSpaceOnUse"><stop offset="0" stop-color="#ffd814"/><stop offset="1" stop-color="#ff16af"/></linearGradient><linearGradient id="Degradado_sin_nombre_82" x1="421.42" y1="397.13" x2="827.65" y2="397.13" gradientUnits="userSpaceOnUse"><stop offset="0" stop-color="#ceff23"/><stop offset="1" stop-color="#0084ff"/></linearGradient><linearGradient id="Degradado_sin_nombre_5-2" x1="444.6" y1="94.31" x2="750" y2="94.31" xlink:href="#Degradado_sin_nombre_5"/></defs><title>5641926_2966109-01-01</title><g class="cls-2"><polygon class="cls-3" points="284.29 563.49 284.29 571.58 501.93 436.82 501.93 428.81 284.29 563.49"/><polygon class="cls-4" points="244.12 -58.96 244.12 19.11 388.06 108.18 388.06 30.17 244.12 -58.96"/><line class="cls-5" x1="787.18" y1="217.95" x2="380.22" y2="-31.57"/><circle class="cls-6" cx="331.22" cy="450.47" r="30.23" transform="translate(-149.16 164.35) rotate(-22.89)"/><polygon class="cls-7" points="271.8 -80.23 271.8 7.83 415.74 96.91 415.74 8.9 271.8 -80.23"/><path class="cls-8" d="M88.31,499.49a.72.72,0,0,0,.91-.48.73.73,0,1,0-1.39-.43A.72.72,0,0,0,88.31,499.49Z"/><path class="cls-8" d="M107.85,497.15a.73.73,0,0,0,.43-1.4.73.73,0,0,0-.43,1.4Z"/><path class="cls-8" d="M127.45,498.91A.73.73,0,1,0,127,498,.73.73,0,0,0,127.45,498.91Z"/><path class="cls-8" d="M47.91,496.57a.94.94,0,1,0-.62-1.17A.93.93,0,0,0,47.91,496.57Z"/><path class="cls-8" d="M65.32,487.37a.94.94,0,1,0-.62-1.17A.93.93,0,0,0,65.32,487.37Z"/><path class="cls-8" d="M84.06,481.34a.94.94,0,1,0-.62-1.18A1,1,0,0,0,84.06,481.34Z"/><path class="cls-8" d="M103.57,478.65a.94.94,0,0,0,1.17-.62.93.93,0,0,0-.62-1.18.94.94,0,0,0-.55,1.8Z"/><path class="cls-8" d="M123.25,479.39a.94.94,0,1,0-.62-1.18A.94.94,0,0,0,123.25,479.39Z"/><path class="cls-8" d="M142.5,483.53a.93.93,0,0,0,1.17-.62.94.94,0,1,0-1.79-.55A.93.93,0,0,0,142.5,483.53Z"/><path class="cls-8" d="M160.73,491a.93.93,0,0,0,1.18-.62.94.94,0,1,0-1.18.62Z"/><path class="cls-8" d="M177.41,501.43a.94.94,0,1,0-.62-1.17A.93.93,0,0,0,177.41,501.43Z"/><path class="cls-8" d="M12.51,502.07a1.2,1.2,0,1,0-.8-1.5A1.2,1.2,0,0,0,12.51,502.07Z"/><path class="cls-8" d="M27,488.67a1.2,1.2,0,1,0-.8-1.5A1.2,1.2,0,0,0,27,488.67Z"/><path class="cls-8" d="M43.22,477.58a1.2,1.2,0,1,0-.79-1.5A1.21,1.21,0,0,0,43.22,477.58Z"/><path class="cls-8" d="M61,469a1.2,1.2,0,1,0,.71-2.29A1.2,1.2,0,0,0,61,469Z"/><path class="cls-8" d="M79.8,463.23a1.2,1.2,0,1,0-.8-1.5A1.2,1.2,0,0,0,79.8,463.23Z"/><path class="cls-8" d="M99.28,460.3a1.2,1.2,0,1,0-.8-1.5A1.21,1.21,0,0,0,99.28,460.3Z"/><path class="cls-8" d="M119,460.3a1.2,1.2,0,1,0-.79-1.5A1.2,1.2,0,0,0,119,460.3Z"/><path class="cls-8" d="M138.45,463.24a1.2,1.2,0,1,0-.79-1.5A1.2,1.2,0,0,0,138.45,463.24Z"/><path class="cls-8" d="M157.27,469.05a1.2,1.2,0,1,0-.79-1.51A1.21,1.21,0,0,0,157.27,469.05Z"/><path class="cls-8" d="M175,477.59a1.2,1.2,0,1,0-.79-1.5A1.2,1.2,0,0,0,175,477.59Z"/><path class="cls-8" d="M191.29,488.69a1.2,1.2,0,1,0-.79-1.5A1.21,1.21,0,0,0,191.29,488.69Z"/><path class="cls-8" d="M205.75,502a1.15,1.15,0,1,0-.76-1.43A1.14,1.14,0,0,0,205.75,502Z"/><path class="cls-8" d="M6.61,481.5a1.41,1.41,0,1,0-.93-1.76A1.41,1.41,0,0,0,6.61,481.5Z"/><path class="cls-8" d="M21.89,469.12a1.46,1.46,0,0,0,.86-2.79,1.46,1.46,0,1,0-.86,2.79Z"/><path class="cls-8" d="M38.68,458.75a1.41,1.41,0,1,0-.93-1.76A1.41,1.41,0,0,0,38.68,458.75Z"/><path class="cls-8" d="M56.67,450.7a1.41,1.41,0,1,0-.93-1.76A1.4,1.4,0,0,0,56.67,450.7Z"/><path class="cls-8" d="M75.55,445.07a1.41,1.41,0,1,0-.93-1.76A1.4,1.4,0,0,0,75.55,445.07Z"/><path class="cls-8" d="M95,442a1.41,1.41,0,1,0-.93-1.76A1.4,1.4,0,0,0,95,442Z"/><path class="cls-8" d="M114.7,441.41a1.41,1.41,0,1,0-.93-1.77A1.41,1.41,0,0,0,114.7,441.41Z"/><path class="cls-8" d="M134.3,443.43a1.41,1.41,0,1,0-.94-1.76A1.41,1.41,0,0,0,134.3,443.43Z"/><path class="cls-8" d="M153.46,448a1.41,1.41,0,1,0-.93-1.76A1.41,1.41,0,0,0,153.46,448Z"/><path class="cls-8" d="M171.87,455a1.41,1.41,0,1,0-.93-1.77A1.41,1.41,0,0,0,171.87,455Z"/><path class="cls-8" d="M189.2,464.4a1.41,1.41,0,1,0-.93-1.77A1.41,1.41,0,0,0,189.2,464.4Z"/><path class="cls-8" d="M205.16,476a1.41,1.41,0,1,0-.93-1.76A1.41,1.41,0,0,0,205.16,476Z"/><path class="cls-8" d="M219.47,489.49a1.41,1.41,0,1,0-.93-1.77A1.42,1.42,0,0,0,219.47,489.49Z"/><path class="cls-8" d="M1.15,461.45A1.67,1.67,0,1,0,0,459.36,1.67,1.67,0,0,0,1.15,461.45Z"/><path class="cls-8" d="M17.05,449.82a1.67,1.67,0,1,0-1.1-2.09A1.67,1.67,0,0,0,17.05,449.82Z"/><path class="cls-8" d="M34.2,440.11A1.67,1.67,0,1,0,33.1,438,1.67,1.67,0,0,0,34.2,440.11Z"/><path class="cls-8" d="M52.36,432.46a1.67,1.67,0,1,0,1-3.19,1.67,1.67,0,0,0-1,3.19Z"/><path class="cls-8" d="M71.28,427a1.67,1.67,0,1,0-1.1-2.09A1.67,1.67,0,0,0,71.28,427Z"/><path class="cls-8" d="M90.72,423.71a1.67,1.67,0,1,0-1.11-2.09A1.68,1.68,0,0,0,90.72,423.71Z"/><path class="cls-8" d="M110.4,422.73a1.67,1.67,0,1,0-1.11-2.09A1.67,1.67,0,0,0,110.4,422.73Z"/><path class="cls-8" d="M130.06,424A1.67,1.67,0,1,0,129,422,1.67,1.67,0,0,0,130.06,424Z"/><path class="cls-8" d="M149.44,427.63a1.67,1.67,0,1,0-1.11-2.09A1.68,1.68,0,0,0,149.44,427.63Z"/><path class="cls-8" d="M168.27,433.44a1.67,1.67,0,1,0-1.11-2.09A1.67,1.67,0,0,0,168.27,433.44Z"/><path class="cls-8" d="M186.29,441.39a1.67,1.67,0,1,0-1.1-2.09A1.66,1.66,0,0,0,186.29,441.39Z"/><path class="cls-8" d="M203.28,451.39a1.67,1.67,0,1,0-1.11-2.09A1.66,1.66,0,0,0,203.28,451.39Z"/><path class="cls-8" d="M219,463.29a1.67,1.67,0,1,0-1.1-2.09A1.67,1.67,0,0,0,219,463.29Z"/><path class="cls-8" d="M233.2,476.93a1.67,1.67,0,1,0-1.1-2.09A1.67,1.67,0,0,0,233.2,476.93Z"/><path class="cls-8" d="M245.74,492.13a1.67,1.67,0,1,0-1.1-2.09A1.66,1.66,0,0,0,245.74,492.13Z"/><path class="cls-8" d="M12.34,430.78a1.93,1.93,0,1,0-1.27-2.41A1.93,1.93,0,0,0,12.34,430.78Z"/><path class="cls-8" d="M29.77,421.58a1.93,1.93,0,1,0-1.28-2.42A1.93,1.93,0,0,0,29.77,421.58Z"/><path class="cls-8" d="M48.06,414.24a1.93,1.93,0,1,0-1.28-2.41A1.93,1.93,0,0,0,48.06,414.24Z"/><path class="cls-8" d="M67,408.86a1.93,1.93,0,1,0-1.28-2.42A1.93,1.93,0,0,0,67,408.86Z"/><path class="cls-8" d="M86.44,405.49a1.93,1.93,0,1,0-1.28-2.42A1.93,1.93,0,0,0,86.44,405.49Z"/><path class="cls-8" d="M106.1,404.17a1.94,1.94,0,1,0-1.28-2.42A1.93,1.93,0,0,0,106.1,404.17Z"/><path class="cls-8" d="M125.79,404.9a1.93,1.93,0,1,0-1.27-2.41A1.93,1.93,0,0,0,125.79,404.9Z"/><path class="cls-8" d="M145.3,407.7a1.93,1.93,0,1,0-1.28-2.42A1.94,1.94,0,0,0,145.3,407.7Z"/><path class="cls-8" d="M164.41,412.52a1.94,1.94,0,1,0-1.28-2.42A1.94,1.94,0,0,0,164.41,412.52Z"/><path class="cls-8" d="M182.91,419.3a1.93,1.93,0,1,0-1.27-2.41A1.93,1.93,0,0,0,182.91,419.3Z"/><path class="cls-8" d="M199.5,425.18a1.71,1.71,0,0,0-.17.39,1.92,1.92,0,0,0,2.5,2.38Z"/><path class="cls-8" d="M7.16,411.63a2.32,2.32,0,0,0,.57.28,2.18,2.18,0,0,0,2.74-1.45,2.14,2.14,0,0,0-.09-1.52Z"/><path class="cls-8" d="M25.37,403.12a2.19,2.19,0,1,0-1.45-2.74A2.2,2.2,0,0,0,25.37,403.12Z"/><path class="cls-8" d="M43.77,396.05a2.19,2.19,0,1,0-1.45-2.75A2.2,2.2,0,0,0,43.77,396.05Z"/><path class="cls-8" d="M62.75,390.75A2.19,2.19,0,1,0,61.31,388,2.2,2.2,0,0,0,62.75,390.75Z"/><path class="cls-8" d="M82.16,387.29a2.19,2.19,0,1,0-1.45-2.74A2.19,2.19,0,0,0,82.16,387.29Z"/><path class="cls-8" d="M101.8,385.68a2.19,2.19,0,1,0-1.45-2.74A2.19,2.19,0,0,0,101.8,385.68Z"/><path class="cls-8" d="M121.51,386a2.2,2.2,0,1,0-1.45-2.75A2.21,2.21,0,0,0,121.51,386Z"/><path class="cls-8" d="M56.72,370.19A2.5,2.5,0,1,0,60,367.91a2.71,2.71,0,0,0-.41-.09Z"/><path class="cls-8" d="M659.74,114.55a.38.38,0,0,1-.11-.51.37.37,0,1,1,.11.51Z"/><path class="cls-8" d="M647.92,98.89a.36.36,0,0,1-.11-.5.37.37,0,0,1,.51-.11.36.36,0,0,1,.11.5A.37.37,0,0,1,647.92,98.89Z"/><path class="cls-8" d="M631.46,88.22a.36.36,0,0,1-.11-.5.37.37,0,0,1,.51-.11.36.36,0,0,1,.11.5A.37.37,0,0,1,631.46,88.22Z"/><path class="cls-8" d="M612.34,83.83a.37.37,0,1,1,.51-.11A.37.37,0,0,1,612.34,83.83Z"/><path class="cls-8" d="M683,124.68a.57.57,0,1,1,.79-.17A.56.56,0,0,1,683,124.68Z"/><path class="cls-8" d="M676.4,106.16a.57.57,0,0,1-.17-.8.57.57,0,1,1,.17.8Z"/><path class="cls-8" d="M665.27,89.92a.52.52,0,1,1,.57-.87.52.52,0,1,1-.57.87Z"/><path class="cls-8" d="M650.28,77.21a.57.57,0,1,1,.8-.17A.58.58,0,0,1,650.28,77.21Z"/><path class="cls-8" d="M632.56,68.72a.52.52,0,0,1-.15-.72.52.52,0,1,1,.87.57A.52.52,0,0,1,632.56,68.72Z"/><path class="cls-8" d="M613.22,65.16a.53.53,0,0,1-.15-.73.52.52,0,0,1,.72-.15A.53.53,0,0,1,614,65,.54.54,0,0,1,613.22,65.16Z"/><path class="cls-8" d="M593.63,66.72a.52.52,0,0,1-.16-.72.52.52,0,0,1,.88.56A.52.52,0,0,1,593.63,66.72Z"/><path class="cls-8" d="M703.25,135.53a.73.73,0,1,1,1-.22A.73.73,0,0,1,703.25,135.53Z"/><path class="cls-8" d="M700.15,116.09a.73.73,0,1,1,1-.21A.73.73,0,0,1,700.15,116.09Z"/><path class="cls-8" d="M693.08,97.73a.73.73,0,1,1,.79-1.23.73.73,0,1,1-.79,1.23Z"/><path class="cls-8" d="M682.35,81.23a.73.73,0,1,1,1-.22A.73.73,0,0,1,682.35,81.23Z"/><path class="cls-8" d="M668.42,67.33a.73.73,0,1,1,1-.22A.73.73,0,0,1,668.42,67.33Z"/><path class="cls-8" d="M651.9,56.62a.73.73,0,0,1-.22-1,.73.73,0,0,1,1.23.8A.73.73,0,0,1,651.9,56.62Z"/><path class="cls-8" d="M633.52,49.59a.73.73,0,0,1-.22-1,.73.73,0,1,1,1.23.79A.73.73,0,0,1,633.52,49.59Z"/><path class="cls-8" d="M614.08,46.53a.73.73,0,1,1,1-.22A.73.73,0,0,1,614.08,46.53Z"/><path class="cls-8" d="M594.43,47.58a.73.73,0,1,1,1-.22A.73.73,0,0,1,594.43,47.58Z"/><path class="cls-8" d="M575.42,52.69a.73.73,0,1,1,1-.22A.73.73,0,0,1,575.42,52.69Z"/><path class="cls-8" d="M722,146.52a.94.94,0,1,1,1.3-.27A.94.94,0,0,1,722,146.52Z"/><path class="cls-8" d="M721.24,126.85a.94.94,0,1,1,1.3-.28A.94.94,0,0,1,721.24,126.85Z"/><path class="cls-8" d="M717.13,107.59a.94.94,0,1,1,1.3-.28A.94.94,0,0,1,717.13,107.59Z"/><path class="cls-8" d="M709.73,89.34a.94.94,0,1,1,1.3-.28A.94.94,0,0,1,709.73,89.34Z"/><path class="cls-8" d="M699.28,72.65a.94.94,0,1,1,1.3-.28A.94.94,0,0,1,699.28,72.65Z"/><path class="cls-8" d="M686.09,58a.94.94,0,0,1-.27-1.3.93.93,0,0,1,1.29-.28.94.94,0,1,1-1,1.58Z"/><path class="cls-8" d="M670.56,45.92a.94.94,0,1,1,1.3-.28A.94.94,0,0,1,670.56,45.92Z"/><path class="cls-8" d="M653.17,36.69a.94.94,0,1,1,1.3-.28A.94.94,0,0,1,653.17,36.69Z"/><path class="cls-8" d="M634.44,30.62a.94.94,0,1,1,1.3-.27A.94.94,0,0,1,634.44,30.62Z"/><path class="cls-8" d="M614.93,27.9a.94.94,0,0,1-.27-1.3.94.94,0,1,1,.27,1.3Z"/><path class="cls-8" d="M595.25,28.61a.94.94,0,1,1,1.3-.28A.94.94,0,0,1,595.25,28.61Z"/><path class="cls-8" d="M576,32.72a.94.94,0,1,1,1.3-.28A.94.94,0,0,1,576,32.72Z"/><path class="cls-8" d="M557.75,40.11a.94.94,0,1,1,1.3-.27A1,1,0,0,1,557.75,40.11Z"/><path class="cls-8" d="M739.73,157.53a1.2,1.2,0,1,1,1.66-.36A1.21,1.21,0,0,1,739.73,157.53Z"/><path class="cls-8" d="M740.74,137.86a1.2,1.2,0,1,1,1.67-.36A1.21,1.21,0,0,1,740.74,137.86Z"/><path class="cls-8" d="M738.81,118.25a1.2,1.2,0,0,1,1.31-2,1.19,1.19,0,0,1,.35,1.66A1.2,1.2,0,0,1,738.81,118.25Z"/><path class="cls-8" d="M734,99.16a1.2,1.2,0,1,1,1.66-.36A1.21,1.21,0,0,1,734,99.16Z"/><path class="cls-8" d="M726.36,81a1.2,1.2,0,0,1-.36-1.66,1.22,1.22,0,0,1,1.67-.35,1.2,1.2,0,0,1-1.31,2Z"/><path class="cls-8" d="M716.11,64.17a1.2,1.2,0,0,1,1.31-2,1.2,1.2,0,0,1-1.31,2Z"/><path class="cls-8" d="M703.48,49.06a1.2,1.2,0,1,1,1.66-.36A1.2,1.2,0,0,1,703.48,49.06Z"/><path class="cls-8" d="M688.73,36a1.2,1.2,0,1,1,1.66-.35A1.2,1.2,0,0,1,688.73,36Z"/><path class="cls-8" d="M672.2,25.29a1.2,1.2,0,0,1,1.3-2,1.2,1.2,0,1,1-1.3,2Z"/><path class="cls-8" d="M654.25,17.16a1.2,1.2,0,0,1-.35-1.66,1.2,1.2,0,0,1,2,1.31A1.2,1.2,0,0,1,654.25,17.16Z"/><path class="cls-8" d="M635.3,11.8a1.2,1.2,0,0,1,1.31-2,1.2,1.2,0,0,1-1.31,2Z"/><path class="cls-8" d="M615.79,9.27a1.15,1.15,0,1,1,1.59-.34A1.14,1.14,0,0,1,615.79,9.27Z"/><path class="cls-8" d="M596.09,9.73a1.15,1.15,0,1,1,1.59-.34A1.13,1.13,0,0,1,596.09,9.73Z"/><path class="cls-8" d="M576.69,13.12a1.15,1.15,0,1,1,1.59-.34A1.14,1.14,0,0,1,576.69,13.12Z"/><path class="cls-8" d="M558,19.37A1.15,1.15,0,1,1,559.6,19,1.15,1.15,0,0,1,558,19.37Z"/><path class="cls-8" d="M540.47,28.33a1.15,1.15,0,1,1,1.58-.34A1.14,1.14,0,0,1,540.47,28.33Z"/><path class="cls-8" d="M743,72.6a1.41,1.41,0,1,1,2-.41A1.39,1.39,0,0,1,743,72.6Z"/><circle class="cls-8" cx="733.69" cy="54.5" r="1.41" transform="translate(244.22 603.76) rotate(-52.54)"/><path class="cls-8" d="M720.71,40.22a1.41,1.41,0,1,1,1.95-.42A1.42,1.42,0,0,1,720.71,40.22Z"/><path class="cls-8" d="M706.59,26.49a1.41,1.41,0,1,1,1.94-.42A1.41,1.41,0,0,1,706.59,26.49Z"/><path class="cls-8" d="M690.79,14.71a1.41,1.41,0,1,1,2-.41A1.41,1.41,0,0,1,690.79,14.71Z"/><path class="cls-8" d="M673.59,5.1a1.41,1.41,0,1,1,1.95-.41A1.41,1.41,0,0,1,673.59,5.1Z"/><path class="cls-8" d="M540.36,7a1.41,1.41,0,1,1,1.95-.41A1.4,1.4,0,0,1,540.36,7Z"/><path class="cls-8" d="M523.44,17.06a1.41,1.41,0,1,1,1.95-.41A1.42,1.42,0,0,1,523.44,17.06Z"/><path class="cls-8" d="M749.67,47.26a1.67,1.67,0,1,1,2.31-.49A1.67,1.67,0,0,1,749.67,47.26Z"/><path class="cls-8" d="M737.8,31.54a1.67,1.67,0,1,1,2.31-.5A1.67,1.67,0,0,1,737.8,31.54Z"/><path class="cls-8" d="M724.18,17.29a1.67,1.67,0,0,1-.5-2.31,1.67,1.67,0,0,1,2.81,1.82A1.66,1.66,0,0,1,724.18,17.29Z"/><path class="cls-8" d="M709,4.73a1.67,1.67,0,1,1,2.31-.49A1.67,1.67,0,0,1,709,4.73Z"/><path class="cls-8" d="M506.62,6.1a1.68,1.68,0,0,1-.49-2.31,1.67,1.67,0,1,1,.49,2.31Z"/><path class="cls-8" d="M741.6,8.29a1.93,1.93,0,1,1,2.67-.57A1.93,1.93,0,0,1,741.6,8.29Z"/><polygon class="cls-9" points="-152.69 460.43 -152.69 518.52 64.95 383.76 64.95 325.75 -152.69 460.43"/><polygon class="cls-7" points="-77.82 570.05 -77.82 578.14 139.82 443.38 139.82 435.37 -77.82 570.05"/><polygon class="cls-7" points="-196.48 396.15 -196.35 404.24 19.1 266.01 18.97 258 -196.48 396.15"/><polygon class="cls-7" points="-196.1 420.3 -195.97 428.38 19.49 290.15 19.36 282.14 -196.1 420.3"/><polygon class="cls-7" points="-195.71 444.44 -195.58 452.52 19.88 314.29 19.75 306.29 -195.71 444.44"/><polygon class="cls-10" points="98.69 334.46 -138.16 481.12 -138.16 539.13 98.69 392.56 98.69 334.46"/><polygon class="cls-11" points="2.44 32.42 2.44 120.47 61.7 157.14 61.7 69.11 2.44 32.42"/><polygon class="cls-7" points="70.29 -15.97 70.29 53.29 116.9 82.14 116.9 12.89 70.29 -15.97"/><polygon class="cls-12" points="88.7 19.2 2.17 -34.38 2.17 53.68 88.7 107.23 88.7 19.2"/><polygon class="cls-13" points="684.96 433.98 907.88 516.52 907.88 569.18 684.96 486.63 684.96 433.98"/><polygon class="cls-14" points="515.35 522.82 421.42 522.82 827.65 271.44 827.65 329.45 515.35 522.82"/><polygon class="cls-15" points="538.52 0 444.6 0 750 188.62 750 130.61 538.52 0"/><line class="cls-5" x1="1004.26" y1="272.21" x2="597.3" y2="22.69"/></g></svg>