<svg
  xmlns="http://www.w3.org/2000/svg"
  xmlns:xlink="http://www.w3.org/1999/xlink"
  viewBox="0 0 208.59 199.54"
><defs><style
    >.cls-1,.cls-4,.cls-5,.cls-6{fill:none;stroke-miterlimit:10;}.cls-1,.cls-4{stroke-width:2px;}.cls-1{stroke:url(#linear-gradient);}.cls-2{fill:url(#linear-gradient-2);}.cls-3{fill:url(#linear-gradient-3);}.cls-4,.cls-5,.cls-6{stroke:#fff;}.cls-5{stroke-width:3px;}.cls-6{stroke-width:4px;}</style><linearGradient
      id="linear-gradient"
      x1="55.64"
      y1="50.67"
      x2="153.83"
      y2="148.87"
      gradientUnits="userSpaceOnUse"
    ><stop offset="0" stop-color="#18ffff" /><stop
        offset="1"
        stop-color="#ffea00"
      /></linearGradient><linearGradient
      id="linear-gradient-2"
      x1="61.8"
      y1="56.84"
      x2="148.11"
      y2="143.14"
      gradientUnits="userSpaceOnUse"
    ><stop offset="0" stop-color="#ff0" /><stop
        offset="0.49"
        stop-color="#ff4081"
      /><stop offset="1" stop-color="#283593" /></linearGradient><linearGradient
      id="linear-gradient-3"
      x1="36.59"
      y1="31.63"
      x2="172.88"
      y2="167.91"
      gradientUnits="userSpaceOnUse"
    ><stop offset="0" stop-color="#d500f9" /><stop
        offset="1"
        stop-color="#18ffff"
      /></linearGradient></defs><title>Asset 1</title><g
    id="Layer_2"
    data-name="Layer 2"
  ><g id="OBJECTS"><path
        class="cls-1"
        d="M89.42,37.88l7.66-4.42L104.73,29l7.66,4.42,7.66,4.42,7.66,4.42,7.65,4.42L143,51.14l7.66,4.42L158.33,60,166,64.4v8.85h0M81.76,42.3l7.66-4.42M58.79,144l-7.65-4.42-7.66-4.43V64.4L51.14,60l7.65-4.42,7.66-4.42,7.66-4.42m38.28,119.36-7.66,4.42-7.65-4.42-7.66-4.42-7.66-4.42-7.65-4.42m91.88-53v35.36l-7.66,4.43L150.68,144,143,148.4l-7.66,4.42-7.65,4.42-7.66,4.42"
      /><path
        class="cls-2"
        d="M102.91,155.17v-2.44H123l36.74-21.21v-12c0-.25,0-.49-.08-.74,0-4-8.38-3.42-8.38-5.1,0-3,8.31-.53,8.46-6.56v-4.88H148.91V99.77h10.82V96.31c0-.41,0-.82,0-1.23,0-3.77-6.21-2.88-6.21-5.11s5.93-3.3,10-4.5c2.21-.66,7.62-1.45,7.62-3.25,0-2.77-11.33-2.16-11.33-5,0-.24,0-.48,0-.72V68l-55-31.75L51.83,66.81h35.1v2.44H49.74V87.19c0,5.06,10.28,4.74,10.28,6.43,0,1.42-6.44,1-6.44,1.87,0,.7,1.42,1.27,1.42,1.51,0,1.42-9.36.06-10,2.72-.56,2.37,3.65,2.43,4.56,4.91.07.32.1.64.16,1,1.37,7.53,12.34,3.65,12.34,6.31,0,1.81-12.29,1-12.29,5.34,0,.3,0,.59,0,.88v3.42H59.1V124H49.74v7.55l55,31.75,14-8.1Z"
      /><path
        class="cls-3"
        d="M184.5,139.63v-2.44h6.64v-2.68c0-.46,0-3.63,0-4.1,2.53-4.15,11.06-3,11.06-6.47,0-1.78-4.82-3.49-7.82-5.34a4.91,4.91,0,0,1-1.21-1.06c-1.08-1.39-3.37-3-2.06-3.54,5.87-2.63-5.23-4.48-2.52-6.26,1.89-1.24-5.69-1.58-5.69-3.45,0-1.12,5.81-2.56,6.25-2.75,4.21-1.77,11-4.28,2.44-7.82-2.3-1-.28-4.61-.44-5.25.08-3.1,4.78-1,6.33-3.52a1.92,1.92,0,0,1,1.34-.93l1.14-.1c4.28-.33,8.6-.42,8.6-3.37s-9.39-5-10.12-5.12a10.48,10.48,0,0,1-6.48-3.6,4,4,0,0,1-.85-2.53h0V49.89L141.6,21.29H118.39l61.14,35.3V69.7c0,.53.06,1.07.14,1.62,0,4,10.37,4,10.37,7.68s-11,3.25-11,7.5c0,1.33,1.39,2,2.2,2.4,7.19,3.7,2.2,9.56-2.77,12.34-1.33.75-5.56,2.54-5.51,5.08.06,3,9.55,6.4,12.14,8.27,7.37,5.35-5.57,11.67-5.57,17.17,0,.52,0,1.34,0,1.73V143l-22.21,12.83h13.76v2.43h-18l-48.37,27.93L29.94,143V129.31c0-.46,0-.92,0-1.39,1.64-5,9-5.2,9-7.49,0-2.64-7.16-3.65-10-10.05-.28-.64-.37-1.54-1-1.75-25.67-8.86,2-5.46,2-15,0-.48,0-1,.05-1.43V83.78c0-.46,0-.92,0-1.37,0-3.56-13.6-6.46-13.6-9.1,0-3.25,12.84-2.84,13.59-7.74,0-.69,0-1.35,0-2v-.74H24.47V60.41h5.47V56.59L104.73,13.4l9.44,5.45h23.21L104.73,0,41.92,36.27h9.8V38.7h-14L18.33,49.89V64.27a7.27,7.27,0,0,1-.11,1.5c-.57,2.63-5.56,3.3-6.12,3.4-3.94.76-8,2.06-8,4.9s4.06,4,7,4.61l.44.09A2,2,0,0,1,13,80.05c.94,3.11,5.35,1.86,5.35,3.71V85.7h8.86v2.44H18.33v4.47C18.33,102.1,0,99.16,0,102.4c0,4.17,11.22,3.08,18.23,8,2.06,1.45,8.46,6.58,8.46,9.53,0,2-4.62,2.86-7.34,4.44a2.07,2.07,0,0,0-1,1.79c0,.65,0,1.38,0,1.66v21.83L41.6,163.09H54.7v2.44H45.82l58.91,34,16.07-9.27H97.6v-2.44H125l66.12-38.18v-10Z"
      /><line
        class="cls-4"
        x1="138.09"
        y1="68.88"
        x2="198.67"
        y2="68.88"
      /><line class="cls-4" x1="67.29" y1="146.21" x2="99.4" y2="146.21" /><line
        class="cls-5"
        x1="114.56"
        y1="116.54"
        x2="125"
        y2="116.54"
      /><line
        class="cls-6"
        x1="125"
        y1="166.21"
        x2="152.53"
        y2="166.21"
      /></g></g></svg>
