<svg xmlns="http://www.w3.org/2000/svg" xmlns:xlink="http://www.w3.org/1999/xlink" viewBox="0 0 204.55 177.15"><defs><style>.cls-1,.cls-2,.cls-3,.cls-4,.cls-7,.cls-8,.cls-9{fill:none;stroke-miterlimit:10;}.cls-1,.cls-2,.cls-3,.cls-4,.cls-7{strokeWidth:2px;}.cls-1{stroke:url(#linear-gradient);}.cls-2{stroke:url(#linear-gradient-2);}.cls-3{stroke:url(#linear-gradient-3);}.cls-4{stroke:url(#linear-gradient-4);}.cls-5{fill:url(#linear-gradient-5);}.cls-6{fill:url(#linear-gradient-6);}.cls-7,.cls-8,.cls-9{stroke:#fff;}.cls-8{strokeWidth:3px;}.cls-9{strokeWidth:4px;}</style><linearGradient id="linear-gradient" x1="75.43" y1="-9.41" x2="96.26" y2="11.41" gradientUnits="userSpaceOnUse"><stop offset="0" stop-color="#18ffff"/><stop offset="1" stop-color="#d500f9"/></linearGradient><linearGradient id="linear-gradient-2" x1="0.13" y1="-0.13" x2="50.44" y2="50.19" xlink:href="#linear-gradient"/><linearGradient id="linear-gradient-3" x1="42.46" y1="97.25" x2="112.32" y2="167.1" xlink:href="#linear-gradient"/><linearGradient id="linear-gradient-4" x1="114.97" y1="-2.19" x2="184.17" y2="67.01" xlink:href="#linear-gradient"/><linearGradient id="linear-gradient-5" x1="42.32" y1="-19.45" x2="162.23" y2="100.45" gradientUnits="userSpaceOnUse"><stop offset="0" stop-color="#ff0"/><stop offset="0.49" stop-color="#ff4081"/><stop offset="1" stop-color="#283593"/></linearGradient><linearGradient id="linear-gradient-6" x1="60.26" y1="8.65" x2="144.4" y2="92.79" gradientUnits="userSpaceOnUse"><stop offset="0" stop-color="#00e5ff"/><stop offset="1" stop-color="#c6ff00"/></linearGradient></defs><title>Asset 1</title><g id="Layer_2" data-name="Layer 2"><g id="OBJECTS"><line class="cls-1" x1="66.02" y1="1" x2="105.68" y2="1"/><polyline class="cls-2" points="37.63 62.63 14.3 22.77 1.73 1 26.87 1"/><polyline class="cls-3" points="114.84 153.38 102.28 175.15 89.71 153.38 77.14 131.61 64.57 109.84 52 88.07"/><polyline class="cls-4" points="112.79 1 177.68 1 202.82 1 190.25 22.77 177.68 44.54 165.11 66.31 152.55 88.07 139.98 109.84"/><path class="cls-5" d="M156.8,68a2,2,0,0,1,0-2l.19-.32,3.09-5.35c.24-.55.64-1.43.89-2a16,16,0,0,1,3.32-5.63H153.46V50.24h14.9c.36-.17.72-.35,1.08-.5.55-.22,1.1-.41,1.65-.6s1.1-.36,1.65-.53c3.24-1,7.36-2.83,8-4.39s-.8-3.12-2.51-4.5c-.34-.27-1.86-1.34-2.66-2a2.83,2.83,0,0,0-1.08-.47c-3.37-.7-3.27-2-1.6-2.66a11.11,11.11,0,0,0,2.83-1.4L190.05,8.37H14.5s.71,1.24,2,3.48H30v2.44H17.91L31.15,37.21a14,14,0,0,1,.7,1.32c1.82,4.51-8.34,5-8.34,7.37,0,3.81,15.34,3.12,18.25,9.85a11.74,11.74,0,0,1,.87,1.34C46.17,63.65,59,61,59,69.21c0,2.32-6.32,3.08-6.09,6,.55,6.87-9,6.07-9,8.43,0,4.08,14.43,1.79,19.52,9.35.34.34.61.9.93,1.29,2.93,3.52,5.54,11.5,5.54,13.33,0,1.27,2.26.81,2.53,1.28L93.2,144.69h9.07v2.44H94.61c4.76,8.23,7.66,13.27,7.66,13.27l24.29-42.06H119V115.9h9l7.11-12.31c1.65-3.54-6.88-6-6.88-7.8,0-3.28,11.81-1.68,14.12-4.74l.81-1.41,2.44-4.23c.26-.44.52-.89.84-1.33,4.56-7,19.19-5,19.19-9.47C165.6,72.42,159.3,72.2,156.8,68ZM137.31,11.85H165.6v2.44H137.31Zm-.77,68.93c-.3.47-.79,1.23-1.07,1.72l-.39.67h6v2.44h-7.46l-.41.59c-4.54,5.37-17.57,3.78-17.57,7.91s8.53,3.66,7.36,10l-.77,1.33-20,34.54L87.75,114.83H83.42v-2.44h2.92q-1.22-2.1-2.48-4.3c-.25-.42-2.3-1-2.3-2.07,0-2.31,3.68-1.73-3-6.17-.52-.34-5.87-11.7-6.37-12.06a54.13,54.13,0,0,1-5.88-4.85H55.14V80.5H64c-2.3-2.89-3.21-5.76-.56-7.73,11.07-9.85-6.25-8.58-11.06-15-.46-.61,1.14-2.44.08-4-4-5.9-31-7.28-10.09-16.06.72-.29.19-1.08,0-1.47L40.52,33H34.33V30.6h4.78l-6.94-12H172.38s-2.55,4.4-6.66,11.53a7.62,7.62,0,0,0-1,2.38c.14,2.33,6,2.3,5.3,6.12-.56,3-16.68,7-18.51,7.68-7.54,2.83-7.26,3.8.38,11.62.48.49.76,1.83-2.9,2.82-.71.2-4.67,1.05-5,1.7-.52.92,2.1,1.81,1.73,2.35-2.19,3.21,6.8,4.1,6.8,6.69C152.5,75.24,142,72.37,136.54,80.78Z"/><path class="cls-6" d="M136.64,45.33l1.21-2.1H119.77V40.79h19.48l2.68-4.64H62.62l4.08,7.08H78.77v2.44H68.11l8.47,14.66c.15.28,1.27,2.1,1.27,2.1C80.29,66.69,73,66.16,73,68.52c0,1.88,6.19.46,9.9,3.23l.93,1.11,12.09,21h6.37v2.44h-5l5,8.59,10.39-18H102.27V84.42h11.8l1.73-3c2.1-4.15-6.77-3.62-6.77-5.6s13.88-4.75,14.27-4.87c3.38-1.12,8.17-1.86,8.17-3.64s-7.36-.15-4.61-5l.43-.76,2.56-4.43c.15-.26.3-.53.46-.79,2.38-3.61,10.14-3,10.14-4.81C140.45,50.33,134.83,50.8,136.64,45.33ZM116.42,53H88.13V50.55h28.29Z"/><line class="cls-7" x1="125.84" y1="24.57" x2="186.42" y2="24.57"/><line class="cls-8" x1="41.48" y1="96.52" x2="71.76" y2="96.52"/><line class="cls-9" x1="49.05" y1="30.68" x2="79.34" y2="30.68"/><line class="cls-7" x1="105.68" y1="125.18" x2="157.8" y2="125.18"/><line class="cls-8" x1="90.93" y1="62.63" x2="101.36" y2="62.63"/></g></g></svg>