<svg xmlns="http://www.w3.org/2000/svg" viewBox="0 0 86.33 53.13"><defs><style>.cls-1{fill:#dec3b6;}.cls-2{fill:#f5e9e1;}.cls-3{fill:#d6b09c;}.cls-4{fill:#6dd14d;}.cls-5{fill:#24baff;}.cls-6{fill:#077ad6;}.cls-7{fill:#3aab40;}.cls-8{fill:#f72a3f;}.cls-9{fill:#fff;}</style></defs><title>Asset 1</title><g id="Layer_2" data-name="Layer 2"><g id="OBJECTS"><polygon class="cls-1" points="0 44.77 7.33 3.45 8.66 0.3 1.5 41.53 0 44.77"/><polygon class="cls-2" points="1.5 41.53 8.66 0.3 32 8.11 29.7 49.53 1.5 41.53"/><polygon class="cls-2" points="58.02 41.22 55.58 0 79.28 8.4 86.33 49.83 58.02 41.22"/><polygon class="cls-1" points="29.7 49.53 32 8.11 55.58 0 58.02 41.22 29.7 49.53"/><polygon class="cls-3" points="58.02 41.22 86.33 49.83 83.79 52.85 57.8 45.07 29.91 53.13 0 44.77 1.5 41.53 29.7 49.53 58.02 41.22"/><path class="cls-4" d="M7.79,22.87,4.92,39.38l25,7L31,25.33S18.27,27.15,7.79,22.87Z"/><path class="cls-5" d="M31,25.33l.79-14.12h0L11,4.25,7.79,22.87C18.27,27.15,31,25.33,31,25.33Z"/><path class="cls-6" d="M31,25.33c4.27-2.88,9-10.23,12.39-18l-11.6,3.86L31,25.33Z"/><path class="cls-7" d="M43.43,7.35c-3.37,7.75-8.12,15.1-12.39,18h0L29.87,46.41l28-8.23L55.77,3.25Z"/><path class="cls-5" d="M79.67,28.57c-7.82.14-15.43,3.25-20.05,10.14l22.94,6.84Z"/><path class="cls-4" d="M79.67,28.57l-3-17.93L55.77,3.25l2.07,34.93,1.78.53C64.24,31.82,71.85,28.71,79.67,28.57Z"/><path class="cls-8" d="M74.79,11.79A5.79,5.79,0,1,0,66.47,17L69,21.38,71.54,17A5.79,5.79,0,0,0,74.79,11.79Z"/><path class="cls-9" d="M71.64,11.79A2.64,2.64,0,1,1,69,9.15,2.64,2.64,0,0,1,71.64,11.79Z"/><path class="cls-8" d="M25.59,29.12a5.79,5.79,0,1,0-8.32,5.2l2.54,4.39,2.53-4.39A5.79,5.79,0,0,0,25.59,29.12Z"/><path class="cls-9" d="M22.44,29.12a2.64,2.64,0,1,1-2.63-2.64A2.64,2.64,0,0,1,22.44,29.12Z"/></g></g></svg>